<?xml version="1.0" encoding="iso-8859-1"?>
<!-- Generator: Adobe Illustrator 19.0.0, SVG Export Plug-In . SVG Version: 6.00 Build 0)  -->
<svg version="1.1" id="Layer_1" xmlns="http://www.w3.org/2000/svg" xmlns:xlink="http://www.w3.org/1999/xlink" x="0px" y="0px"
	 viewBox="0 0 512 512" style="enable-background:new 0 0 512 512;" xml:space="preserve">
<g>
	
		<rect x="81.672" y="155.405" transform="matrix(-0.7071 0.7071 -0.7071 -0.7071 397.9837 346.4122)" style="fill:#FFD355;" width="91.15" height="200.453"/>
	
		<rect x="210.724" y="155.113" transform="matrix(-0.7071 0.7071 -0.7071 -0.7071 618.1215 255.6916)" style="fill:#FFD355;" width="90.762" height="201.499"/>
	
		<rect x="339.008" y="155.483" transform="matrix(-0.7071 0.7071 -0.7071 -0.7071 837.5128 164.3799)" style="fill:#FFD355;" width="91.409" height="200.324"/>
</g>
<g>
	
		<rect x="146.181" y="13.514" transform="matrix(-0.7071 -0.7071 0.7071 -0.7071 246.5902 329.6229)" style="fill:#FF9013;" width="90.762" height="200.453"/>
	<polygon style="fill:#FF9013;" points="281.567,217.143 216.955,152.531 358.701,10.786 423.772,74.938 	"/>
	
		<rect x="145.889" y="297.319" transform="matrix(-0.7071 -0.7071 0.7071 -0.7071 46.1631 814.6119)" style="fill:#FF9013;" width="91.808" height="200.852"/>
	
		<rect x="275.451" y="297.582" transform="matrix(-0.7071 -0.7071 0.7071 -0.7071 266.0057 905.5411)" style="fill:#FF9013;" width="90.19" height="200.194"/>
</g>
<path d="M169.077,308.236c-0.712,0-1.413-0.065-2.114-0.205c-0.69-0.14-1.37-0.345-2.017-0.615c-0.647-0.27-1.273-0.604-1.866-0.992
	c-0.582-0.388-1.143-0.841-1.639-1.337c-0.496-0.496-0.949-1.057-1.337-1.639c-0.388-0.593-0.723-1.219-0.992-1.866
	c-0.27-0.647-0.475-1.327-0.615-2.017c-0.14-0.701-0.205-1.402-0.205-2.103c0-0.712,0.065-1.413,0.205-2.114
	c0.14-0.69,0.345-1.37,0.615-2.017c0.27-0.647,0.604-1.273,0.992-1.866c0.388-0.582,0.841-1.143,1.337-1.639
	c0.496-0.496,1.057-0.949,1.639-1.337c0.593-0.388,1.219-0.723,1.866-0.992c0.647-0.27,1.327-0.475,2.017-0.615
	c1.391-0.28,2.826-0.28,4.217,0c0.69,0.14,1.37,0.345,2.017,0.615c0.647,0.27,1.273,0.604,1.866,0.992
	c0.582,0.388,1.143,0.841,1.639,1.337c0.496,0.496,0.949,1.057,1.337,1.639c0.388,0.593,0.723,1.219,0.992,1.866
	c0.27,0.647,0.475,1.327,0.615,2.017c0.14,0.701,0.205,1.402,0.205,2.114c0,0.701-0.065,1.402-0.205,2.103
	c-0.14,0.69-0.345,1.37-0.615,2.017c-0.27,0.647-0.604,1.273-0.992,1.866c-0.388,0.582-0.841,1.143-1.337,1.639
	c-0.496,0.496-1.057,0.949-1.639,1.337c-0.593,0.388-1.219,0.723-1.866,0.992c-0.647,0.27-1.327,0.475-2.017,0.615
	C170.49,308.171,169.778,308.236,169.077,308.236z"/>
<path d="M495.479,286.529L361.457,152.507l69.942-69.942c2.032-2.032,3.169-4.791,3.159-7.666c-0.01-2.874-1.167-5.625-3.213-7.642
	L366.273,3.105c-4.219-4.16-11.007-4.136-15.199,0.054L294.523,59.71l-56.55-56.55C235.951,1.137,233.207,0,230.347,0
	s-5.604,1.137-7.627,3.159L80.974,144.905l-64.453,64.453c-4.212,4.212-4.212,11.041,0,15.254L150.64,358.731l-69.941,69.941
	c-2.022,2.022-3.159,4.766-3.159,7.627s1.137,5.604,3.159,7.627l64.916,64.916c2.106,2.106,4.867,3.159,7.627,3.159
	s5.521-1.053,7.627-3.159l57.01-57.01l56.149,56.15c2.023,2.022,4.766,3.159,7.627,3.159c2.86,0,5.603-1.137,7.627-3.159
	l141.563-141.563l64.636-64.636C499.691,297.571,499.691,290.741,495.479,286.529z M302.15,82.59
	c0.001-0.001,0.001-0.001,0.002-0.002l56.602-56.602l49.709,49.007l-69.883,69.883c-0.002,0.002-0.003,0.003-0.005,0.005
	l-57.01,57.01l-49.357-49.357L302.15,82.59z M344.186,295.016l-48.924,48.924l-57.289-57.289l-69.942-69.942l48.924-48.924
	l56.985,56.985L344.186,295.016z M230.347,26.039l48.922,48.924l-32.982,32.982l-36.959,36.959
	c-0.001,0.001-0.002,0.002-0.003,0.003l-56.547,56.547l-48.924-48.924L230.347,26.039z M39.401,216.984l16.973-16.973l81.941,81.941
	c2.106,2.106,4.867,3.159,7.627,3.159s5.521-1.053,7.627-3.159c4.212-4.212,4.212-11.041,0-15.254l-81.941-81.941l16.973-16.973
	l56.55,56.55c0.002,0.002,0.003,0.003,0.005,0.005l69.937,69.937l-17.205,17.204l-31.995,31.995L39.401,216.984z M210.25,428.951
	c-0.001,0.001-0.002,0.002-0.002,0.003l-57.006,57.006l-49.662-49.662l93.783-93.782l32.986-32.985l49.661,49.662l-32.956,32.956
	L210.25,428.951z M281.653,485.102l-48.523-48.523l69.759-69.759c0.001-0.001,0.001-0.001,0.002-0.002l56.548-56.548l48.523,48.523
	L281.653,485.102z M423.216,343.539l-56.15-56.15c-0.001-0.001-0.002-0.002-0.003-0.002l-70.243-70.243l16.456-16.456l82.802,82.802
	c2.106,2.106,4.867,3.159,7.627,3.159c2.76,0,5.52-1.053,7.627-3.159c4.212-4.212,4.212-11.041,0-15.254l-82.802-82.802
	l17.673-17.673l126.395,126.396L423.216,343.539z"/>
<path d="M426.837,309.778c-0.7,0-1.413-0.076-2.103-0.216s-1.37-0.345-2.028-0.615c-0.647-0.27-1.273-0.604-1.855-0.992
	c-0.593-0.388-1.143-0.841-1.641-1.337c-0.496-0.496-0.949-1.046-1.348-1.639c-0.387-0.582-0.723-1.208-0.992-1.866
	c-0.27-0.647-0.474-1.327-0.614-2.017c-0.14-0.69-0.205-1.402-0.205-2.103s0.066-1.413,0.205-2.103
	c0.14-0.69,0.344-1.37,0.614-2.028c0.27-0.647,0.605-1.273,0.992-1.855c0.399-0.593,0.852-1.143,1.348-1.639
	c0.497-0.496,1.047-0.949,1.641-1.348c0.582-0.388,1.208-0.723,1.855-0.992c0.658-0.27,1.337-0.475,2.028-0.615
	c1.381-0.28,2.815-0.28,4.206,0c0.69,0.14,1.37,0.345,2.017,0.615c0.657,0.27,1.282,0.604,1.865,0.992
	c0.594,0.399,1.144,0.852,1.641,1.348c0.496,0.496,0.949,1.046,1.337,1.639c0.387,0.582,0.723,1.208,0.992,1.855
	c0.27,0.658,0.473,1.337,0.614,2.028s0.216,1.402,0.216,2.103c0,2.837-1.154,5.619-3.16,7.626c-0.496,0.496-1.046,0.949-1.641,1.337
	c-0.582,0.388-1.208,0.723-1.865,0.992c-0.648,0.27-1.327,0.475-2.017,0.615C428.25,309.703,427.538,309.778,426.837,309.778z"/>
<g>
</g>
<g>
</g>
<g>
</g>
<g>
</g>
<g>
</g>
<g>
</g>
<g>
</g>
<g>
</g>
<g>
</g>
<g>
</g>
<g>
</g>
<g>
</g>
<g>
</g>
<g>
</g>
<g>
</g>
</svg>
