<?xml version="1.0" encoding="iso-8859-1"?>
<!-- Generator: Adobe Illustrator 19.0.0, SVG Export Plug-In . SVG Version: 6.00 Build 0)  -->
<svg version="1.1" id="Layer_1" xmlns="http://www.w3.org/2000/svg" xmlns:xlink="http://www.w3.org/1999/xlink" x="0px" y="0px"
	 viewBox="0 0 512 512" style="enable-background:new 0 0 512 512;" xml:space="preserve">
<g>
	<rect x="109.382" y="175.907" style="fill:#85644D;" width="97.745" height="324.457"/>
	<rect x="402.618" y="353.455" style="fill:#85644D;" width="97.745" height="146.909"/>
	<rect x="304.873" y="175.907" style="fill:#85644D;" width="97.745" height="324.457"/>
	<rect x="207.127" y="353.455" style="fill:#85644D;" width="97.745" height="146.909"/>
	<rect x="11.636" y="353.455" style="fill:#85644D;" width="97.745" height="146.909"/>
</g>
<g>
	<rect x="11.636" y="11.636" style="fill:#D1AC92;" width="97.745" height="341.818"/>
	<rect x="109.382" y="11.636" style="fill:#D1AC92;" width="97.745" height="164.271"/>
	<rect x="207.127" y="11.636" style="fill:#D1AC92;" width="97.745" height="341.818"/>
	<rect x="304.873" y="11.636" style="fill:#D1AC92;" width="97.745" height="164.271"/>
	<rect x="402.618" y="11.636" style="fill:#D1AC92;" width="97.745" height="341.818"/>
</g>
<g>
	<path style="fill:#231F20;" d="M500.364,0H11.636C5.21,0,0,5.211,0,11.636v341.818v146.909C0,506.789,5.21,512,11.636,512h488.727
		c6.427,0,11.636-5.211,11.636-11.636V353.455V11.636C512,5.211,506.79,0,500.364,0z M488.727,341.818h-74.473V175.903V23.273
		h74.473V341.818z M488.727,488.727h-74.473V365.091h74.473V488.727z M97.745,23.273v152.631v165.915H23.273V23.273H97.745z
		 M390.982,164.267h-74.473V23.273h74.473V164.267z M293.236,175.903v165.915h-74.473V175.903V23.273h74.473V175.903z
		 M195.491,164.267h-74.473V23.273h74.473V164.267z M23.273,365.091h74.473v123.636H23.273V365.091z M121.018,353.455V187.54h74.473
		v165.915v135.273h-74.473V353.455z M218.764,365.091h74.473v123.636h-74.473V365.091z M316.509,353.455V187.54h74.473v165.915
		v135.273h-74.473V353.455z"/>
	<circle style="fill:#231F20;" cx="158.255" cy="220.893" r="11.636"/>
	<circle style="fill:#231F20;" cx="158.255" cy="130.909" r="11.636"/>
	<circle style="fill:#231F20;" cx="353.745" cy="220.893" r="11.636"/>
	<circle style="fill:#231F20;" cx="353.745" cy="130.909" r="11.636"/>
	<circle style="fill:#231F20;" cx="256" cy="398.452" r="11.636"/>
	<circle style="fill:#231F20;" cx="256" cy="308.457" r="11.636"/>
	<circle style="fill:#231F20;" cx="60.509" cy="398.452" r="11.636"/>
	<circle style="fill:#231F20;" cx="60.509" cy="308.457" r="11.636"/>
	<circle style="fill:#231F20;" cx="456.727" cy="398.452" r="11.636"/>
	<circle style="fill:#231F20;" cx="456.727" cy="308.457" r="11.636"/>
</g>
<g>
</g>
<g>
</g>
<g>
</g>
<g>
</g>
<g>
</g>
<g>
</g>
<g>
</g>
<g>
</g>
<g>
</g>
<g>
</g>
<g>
</g>
<g>
</g>
<g>
</g>
<g>
</g>
<g>
</g>
</svg>
