<?xml version="1.0" encoding="iso-8859-1"?>
<!-- Generator: Adobe Illustrator 19.0.0, SVG Export Plug-In . SVG Version: 6.00 Build 0)  -->
<svg version="1.1" id="Layer_1" xmlns="http://www.w3.org/2000/svg" xmlns:xlink="http://www.w3.org/1999/xlink" x="0px" y="0px"
	 viewBox="0 0 512 512" style="enable-background:new 0 0 512 512;" xml:space="preserve">
<g>
	<rect x="11.13" y="11.13" style="fill:#D1AC92;" width="489.739" height="489.739"/>
	<polygon style="fill:#D1AC92;" points="385.569,134.578 322.604,71.613 383.087,11.13 500.87,11.13 500.87,19.278 448.534,71.613 	
		"/>
</g>
<polygon style="fill:#B0483E;" points="259.64,134.578 196.675,71.613 257.158,11.13 383.087,11.13 322.604,71.613 "/>
<polygon style="fill:#85644D;" points="133.71,134.578 70.745,71.613 131.228,11.13 257.158,11.13 "/>
<polygon style="fill:#B0483E;" points="500.87,249.878 385.569,134.578 448.534,71.613 500.87,123.949 "/>
<rect x="317.437" y="73.753" transform="matrix(0.7071 -0.7071 0.7071 0.7071 -16.969 306.8847)" style="fill:#85644D;" width="89.043" height="200.346"/>
<rect x="193.629" y="73.762" transform="matrix(0.7071 -0.7071 0.7071 0.7071 -53.2379 219.3422)" style="fill:#D1AC92;" width="89.043" height="200.346"/>
<g>
	<polygon style="fill:#B0483E;" points="149.448,276.246 86.495,213.281 11.13,137.917 11.13,131.239 70.745,71.613 133.71,134.578 
		212.413,213.281 	"/>
	<polygon style="fill:#B0483E;" points="259.64,417.914 196.675,354.95 275.378,276.246 338.343,213.281 401.308,276.246 
		322.604,354.95 	"/>
</g>
<polygon style="fill:#85644D;" points="11.13,414.575 11.13,288.646 86.495,213.281 149.448,276.246 70.745,354.95 "/>
<polygon style="fill:#B0483E;" points="500.87,500.87 468.525,500.87 385.569,417.914 448.534,354.95 500.87,407.285 "/>
<polygon style="fill:#85644D;" points="468.525,500.87 342.595,500.87 259.64,417.914 322.604,354.95 "/>
<polygon style="fill:#B0483E;" points="216.665,500.87 90.735,500.87 11.13,421.254 11.13,414.575 70.745,354.95 "/>
<path style="fill:#231F20;" d="M500.87,0H383.087h-125.93h-125.93H11.13C4.983,0,0,4.983,0,11.13v120.109v6.678v150.728v125.93
	v6.678v79.616C0,507.017,4.983,512,11.13,512h79.605h125.93h125.93h125.93h32.345c6.147,0,11.13-4.983,11.13-11.13v-93.585V302.614
	v-52.736v-125.93V19.278V11.13C512,4.983,507.017,0,500.87,0z M347.205,489.739l-71.825-71.825l47.223-47.223l119.049,119.048
	H347.205z M356.216,22.261L314.75,63.726c-0.006,0.006-0.011,0.01-0.017,0.016l-55.093,55.092l-47.222-47.222l49.351-49.351H356.216
	z M385.569,402.174l-47.224-47.224l125.928-125.928l25.466,25.466v43.514L385.569,402.174z M259.64,402.174l-47.223-47.224
	l70.833-70.833c0.002-0.002,0.003-0.004,0.006-0.006l55.089-55.089l47.224,47.224l-70.833,70.833
	c-0.003,0.003-0.006,0.006-0.008,0.009L259.64,402.174z M346.214,205.409l-70.832-70.832l47.222-47.222L448.53,213.28
	l-47.223,47.222l-55.087-55.087C346.218,205.413,346.216,205.411,346.214,205.409z M157.319,284.117l55.095-55.095l47.224,47.223
	l-70.833,70.833l-55.095,55.095l-47.221-47.221L157.319,284.117z M196.675,87.354l55.095,55.095
	c0.008,0.008,0.016,0.013,0.023,0.021l70.811,70.811l-47.223,47.222L149.454,134.576L196.675,87.354z M70.746,87.355l55.093,55.093
	c0.002,0.002,0.004,0.003,0.006,0.006l70.827,70.827l-47.223,47.223l-55.083-55.092c-0.019-0.019-0.04-0.035-0.058-0.053
	l-70.776-70.781L70.746,87.355z M70.751,213.284l-48.49,48.491v-96.983L70.751,213.284z M22.261,293.256l64.23-64.23l47.216,47.22
	L22.261,387.701V293.256z M489.739,329.486v50.927l-25.463-25.464L489.739,329.486z M489.739,223.006l-17.596-17.596
	c-0.002-0.002-0.003-0.003-0.006-0.006l-70.827-70.827l47.224-47.224l41.205,41.205V223.006z M464.276,71.613l25.463-25.464v50.927
	L464.276,71.613z M440.672,63.735c-0.002,0.002-0.006,0.004-0.008,0.008l-55.095,55.095l-47.224-47.224l49.352-49.352h94.447
	L440.672,63.735z M230.285,22.261l-41.482,41.482c-0.002,0.002-0.003,0.003-0.006,0.006l-55.089,55.089L86.486,71.613l49.352-49.352
	H230.285z M104.356,22.261l-82.095,82.104V22.261H104.356z M22.261,448.128l41.606,41.611H22.261V448.128z M23.532,417.914
	l47.216-47.221l119.046,119.046H95.347L23.532,417.914z M221.275,489.739l-71.825-71.825l47.224-47.224l119.049,119.049H221.275z
	 M489.739,489.739h-16.604l-71.825-71.825l47.224-47.224l41.205,41.205V489.739z"/>
<g>
</g>
<g>
</g>
<g>
</g>
<g>
</g>
<g>
</g>
<g>
</g>
<g>
</g>
<g>
</g>
<g>
</g>
<g>
</g>
<g>
</g>
<g>
</g>
<g>
</g>
<g>
</g>
<g>
</g>
</svg>
