<?xml version="1.0" encoding="iso-8859-1"?>
<!-- Generator: Adobe Illustrator 19.0.0, SVG Export Plug-In . SVG Version: 6.00 Build 0)  -->
<svg version="1.1" id="Layer_1" xmlns="http://www.w3.org/2000/svg" xmlns:xlink="http://www.w3.org/1999/xlink" x="0px" y="0px"
	 viewBox="0 0 512 512" style="enable-background:new 0 0 512 512;" xml:space="preserve">
<polygon style="fill:#B3592B;" points="395.294,426.666 512,512 512,341.334 "/>
<polygon style="fill:#E37E31;" points="512,170.666 302.672,302.672 170.666,512 341.334,512 404.028,483.44 426.666,426.666 
	512,341.334 "/>
<g>
	<polygon style="fill:#C75214;" points="341.334,512 512,512 426.666,426.666 	"/>
	<polygon style="fill:#C75214;" points="512,0 206.89,256 341.334,341.334 512,170.666 	"/>
</g>
<polygon style="fill:#E37E31;" points="341.334,0 141.409,141.409 0,341.334 25.774,401.241 85.334,426.666 426.666,85.334 
	405.42,29.954 "/>
<polygon style="fill:#B3592B;" points="512,0 341.334,0 426.666,85.334 "/>
<polygon style="fill:#F5A142;" points="0,512 170.666,512 341.334,341.334 256,256 85.334,426.666 32.74,444.43 "/>
<polygon style="fill:#C75214;" points="0,512 85.334,426.666 0,341.334 "/>
<polygon style="fill:#B3592B;" points="170.666,0 53.962,85.334 170.666,170.666 341.334,0 "/>
<polygon style="fill:#C75214;" points="0,170.666 0,341.334 170.666,170.666 85.334,85.334 31.347,105.187 "/>
<polygon style="fill:#F5A142;" points="0,0 0,170.666 170.666,0 "/>
<g>
</g>
<g>
</g>
<g>
</g>
<g>
</g>
<g>
</g>
<g>
</g>
<g>
</g>
<g>
</g>
<g>
</g>
<g>
</g>
<g>
</g>
<g>
</g>
<g>
</g>
<g>
</g>
<g>
</g>
</svg>
