<?xml version="1.0" encoding="iso-8859-1"?>
<!-- Generator: Adobe Illustrator 19.0.0, SVG Export Plug-In . SVG Version: 6.00 Build 0)  -->
<svg version="1.1" id="Layer_1" xmlns="http://www.w3.org/2000/svg" xmlns:xlink="http://www.w3.org/1999/xlink" x="0px" y="0px"
	 viewBox="0 0 512 512" style="enable-background:new 0 0 512 512;" xml:space="preserve">
<g transform="translate(1 1)">
	<path style="fill:#FFDD09;" d="M383,502.467h85.333v-256H383V502.467z"/>
	<path style="fill:#FD9808;" d="M451.267,502.467h17.067V7.533h-17.067V502.467z"/>
	<path style="fill:#FFDD09;" d="M41.667,502.467H127V7.533H41.667V502.467z"/>
	<path style="fill:#FFFFFF;" d="M41.667,502.467h17.067V7.533H41.667V502.467z"/>
	<path style="fill:#FFDD09;" d="M127,502.467h85.333V340.333H127V502.467z"/>
	<g>
		<path style="fill:#FD9808;" d="M127,340.333h85.333V7.533H127V340.333z"/>
		<path style="fill:#FD9808;" d="M383,246.467h85.333V7.533H383V246.467z"/>
		<path style="fill:#FD9808;" d="M212.333,502.467h85.333V161.133h-85.333V502.467z"/>
	</g>
	<g>
		<path style="fill:#FFDD09;" d="M212.333,161.133h85.333V7.533h-85.333V161.133z"/>
		<path style="fill:#FFDD09;" d="M297.667,502.467H383V7.533h-85.333V502.467z"/>
	</g>
	<path d="M195.267,365.933c0-5.12-3.413-8.533-8.533-8.533c-5.12,0-8.533,3.413-8.533,8.533s3.413,8.533,8.533,8.533
		C191.853,374.467,195.267,371.053,195.267,365.933"/>
	<path d="M161.133,365.933c0-5.12-3.413-8.533-8.533-8.533c-5.12,0-8.533,3.413-8.533,8.533s3.413,8.533,8.533,8.533
		C157.72,374.467,161.133,371.053,161.133,365.933"/>
	<path id="SVGCleanerId_0" d="M212.333,511H127c-5.12,0-8.533-3.413-8.533-8.533V340.333c0-5.12,3.413-8.533,8.533-8.533h85.333
		c5.12,0,8.533,3.413,8.533,8.533v162.133C220.867,507.587,217.453,511,212.333,511z M135.533,493.933H203.8V348.867h-68.267
		V493.933z"/>
	<path d="M144.067,314.733c0,5.12,3.413,8.533,8.533,8.533c5.12,0,8.533-3.413,8.533-8.533c0-5.12-3.413-8.533-8.533-8.533
		C148.333,306.2,144.067,310.467,144.067,314.733"/>
	<path d="M178.2,314.733c0,5.12,3.413,8.533,8.533,8.533c5.12,0,8.533-3.413,8.533-8.533c0-5.12-3.413-8.533-8.533-8.533
		C181.613,306.2,178.2,310.467,178.2,314.733"/>
	<path id="SVGCleanerId_1" d="M212.333,348.867H127c-5.12,0-8.533-3.413-8.533-8.533V7.533C118.467,2.413,121.88-1,127-1h85.333
		c5.12,0,8.533,3.413,8.533,8.533v332.8C220.867,345.453,217.453,348.867,212.333,348.867z M135.533,331.8H203.8V16.067h-68.267
		V331.8z"/>
	<path d="M451.267,272.067c0-5.12-3.413-8.533-8.533-8.533c-5.12,0-8.533,3.413-8.533,8.533s3.413,8.533,8.533,8.533
		C447.853,280.6,451.267,277.187,451.267,272.067"/>
	<path d="M417.133,272.067c0-5.12-3.413-8.533-8.533-8.533c-5.12,0-8.533,3.413-8.533,8.533s3.413,8.533,8.533,8.533
		C413.72,280.6,417.133,277.187,417.133,272.067"/>
	<path id="SVGCleanerId_2" d="M468.333,511H383c-5.12,0-8.533-3.413-8.533-8.533v-256c0-5.12,3.413-8.533,8.533-8.533h85.333
		c5.12,0,8.533,3.413,8.533,8.533v256C476.867,507.587,473.453,511,468.333,511z M391.533,493.933H459.8V255h-68.267V493.933z"/>
	<path d="M400.067,220.867c0,5.12,3.413,8.533,8.533,8.533c5.12,0,8.533-3.413,8.533-8.533c0-5.12-3.413-8.533-8.533-8.533
		C404.333,212.333,400.067,216.6,400.067,220.867"/>
	<path d="M434.2,220.867c0,5.12,3.413,8.533,8.533,8.533c5.12,0,8.533-3.413,8.533-8.533c0-5.12-3.413-8.533-8.533-8.533
		C438.467,212.333,434.2,216.6,434.2,220.867"/>
	<path id="SVGCleanerId_3" d="M468.333,255H383c-5.12,0-8.533-3.413-8.533-8.533V7.533C374.467,2.413,377.88-1,383-1h85.333
		c5.12,0,8.533,3.413,8.533,8.533v238.933C476.867,251.587,473.453,255,468.333,255z M391.533,237.933H459.8V16.067h-68.267V237.933
		z"/>
	<path d="M280.6,186.733c0-5.12-3.413-8.533-8.533-8.533s-8.533,3.413-8.533,8.533c0,5.12,3.413,8.533,8.533,8.533
		S280.6,191.853,280.6,186.733"/>
	<path d="M246.467,186.733c0-5.12-3.413-8.533-8.533-8.533c-5.12,0-8.533,3.413-8.533,8.533c0,5.12,3.413,8.533,8.533,8.533
		C243.053,195.267,246.467,191.853,246.467,186.733"/>
	<path id="SVGCleanerId_4" d="M297.667,511h-85.333c-5.12,0-8.533-3.413-8.533-8.533V161.133c0-5.12,3.413-8.533,8.533-8.533h85.333
		c5.12,0,8.533,3.413,8.533,8.533v341.333C306.2,507.587,302.787,511,297.667,511z M220.867,493.933h68.267V169.667h-68.267V493.933
		z"/>
	<path d="M229.4,135.533c0,5.12,3.413,8.533,8.533,8.533c5.12,0,8.533-3.413,8.533-8.533S243.053,127,237.933,127
		C232.813,127,229.4,131.267,229.4,135.533"/>
	<path d="M263.533,135.533c0,5.12,3.413,8.533,8.533,8.533s8.533-3.413,8.533-8.533S277.187,127,272.067,127
		S263.533,131.267,263.533,135.533"/>
	<path id="SVGCleanerId_5" d="M297.667,169.667h-85.333c-5.12,0-8.533-3.413-8.533-8.533V7.533c0-5.12,3.413-8.533,8.533-8.533
		h85.333c5.12,0,8.533,3.413,8.533,8.533v153.6C306.2,166.253,302.787,169.667,297.667,169.667z M220.867,152.6h68.267V16.067
		h-68.267V152.6z"/>
	<path d="M109.933,33.133c0-5.12-3.413-8.533-8.533-8.533c-5.12,0-8.533,4.267-8.533,8.533s3.413,8.533,8.533,8.533
		C106.52,41.667,109.933,38.253,109.933,33.133"/>
	<path d="M75.8,33.133c0-5.12-3.413-8.533-8.533-8.533s-8.533,4.267-8.533,8.533s3.413,8.533,8.533,8.533S75.8,38.253,75.8,33.133"
		/>
	<path d="M109.933,476.867c0-5.12-3.413-8.533-8.533-8.533c-5.12,0-8.533,3.413-8.533,8.533c0,5.12,3.413,8.533,8.533,8.533
		C106.52,485.4,109.933,481.987,109.933,476.867"/>
	<path d="M75.8,476.867c0-5.12-3.413-8.533-8.533-8.533s-8.533,3.413-8.533,8.533c0,5.12,3.413,8.533,8.533,8.533
		S75.8,481.987,75.8,476.867"/>
	<path id="SVGCleanerId_6" d="M127,511H41.667c-5.12,0-8.533-3.413-8.533-8.533V7.533c0-5.12,3.413-8.533,8.533-8.533H127
		c5.12,0,8.533,3.413,8.533,8.533v494.933C135.533,507.587,132.12,511,127,511z M50.2,493.933h68.267V16.067H50.2V493.933z"/>
	<path d="M365.933,33.133c0-5.12-3.413-8.533-8.533-8.533s-8.533,3.413-8.533,8.533s3.413,8.533,8.533,8.533
		S365.933,38.253,365.933,33.133"/>
	<path d="M331.8,33.133c0-5.12-3.413-8.533-8.533-8.533c-5.12,0-8.533,3.413-8.533,8.533s3.413,8.533,8.533,8.533
		C328.387,41.667,331.8,38.253,331.8,33.133"/>
	<path d="M365.933,476.867c0-5.12-3.413-8.533-8.533-8.533s-8.533,3.413-8.533,8.533c0,5.12,3.413,8.533,8.533,8.533
		S365.933,481.987,365.933,476.867"/>
	<path d="M331.8,476.867c0-5.12-3.413-8.533-8.533-8.533c-5.12,0-8.533,3.413-8.533,8.533c0,5.12,3.413,8.533,8.533,8.533
		C328.387,485.4,331.8,481.987,331.8,476.867"/>
	<path id="SVGCleanerId_7" d="M383,511h-85.333c-5.12,0-8.533-3.413-8.533-8.533V7.533c0-5.12,3.413-8.533,8.533-8.533H383
		c5.12,0,8.533,3.413,8.533,8.533v494.933C391.533,507.587,388.12,511,383,511z M306.2,493.933h68.267V16.067H306.2V493.933z"/>
	<g>
		<path id="SVGCleanerId_0_1_" d="M212.333,511H127c-5.12,0-8.533-3.413-8.533-8.533V340.333c0-5.12,3.413-8.533,8.533-8.533h85.333
			c5.12,0,8.533,3.413,8.533,8.533v162.133C220.867,507.587,217.453,511,212.333,511z M135.533,493.933H203.8V348.867h-68.267
			V493.933z"/>
	</g>
	<g>
		<path id="SVGCleanerId_1_1_" d="M212.333,348.867H127c-5.12,0-8.533-3.413-8.533-8.533V7.533C118.467,2.413,121.88-1,127-1h85.333
			c5.12,0,8.533,3.413,8.533,8.533v332.8C220.867,345.453,217.453,348.867,212.333,348.867z M135.533,331.8H203.8V16.067h-68.267
			V331.8z"/>
	</g>
	<g>
		<path id="SVGCleanerId_2_1_" d="M468.333,511H383c-5.12,0-8.533-3.413-8.533-8.533v-256c0-5.12,3.413-8.533,8.533-8.533h85.333
			c5.12,0,8.533,3.413,8.533,8.533v256C476.867,507.587,473.453,511,468.333,511z M391.533,493.933H459.8V255h-68.267V493.933z"/>
	</g>
	<g>
		<path id="SVGCleanerId_3_1_" d="M468.333,255H383c-5.12,0-8.533-3.413-8.533-8.533V7.533C374.467,2.413,377.88-1,383-1h85.333
			c5.12,0,8.533,3.413,8.533,8.533v238.933C476.867,251.587,473.453,255,468.333,255z M391.533,237.933H459.8V16.067h-68.267
			V237.933z"/>
	</g>
	<g>
		<path id="SVGCleanerId_4_1_" d="M297.667,511h-85.333c-5.12,0-8.533-3.413-8.533-8.533V161.133c0-5.12,3.413-8.533,8.533-8.533
			h85.333c5.12,0,8.533,3.413,8.533,8.533v341.333C306.2,507.587,302.787,511,297.667,511z M220.867,493.933h68.267V169.667h-68.267
			V493.933z"/>
	</g>
	<g>
		<path id="SVGCleanerId_5_1_" d="M297.667,169.667h-85.333c-5.12,0-8.533-3.413-8.533-8.533V7.533c0-5.12,3.413-8.533,8.533-8.533
			h85.333c5.12,0,8.533,3.413,8.533,8.533v153.6C306.2,166.253,302.787,169.667,297.667,169.667z M220.867,152.6h68.267V16.067
			h-68.267V152.6z"/>
	</g>
	<g>
		<path id="SVGCleanerId_6_1_" d="M127,511H41.667c-5.12,0-8.533-3.413-8.533-8.533V7.533c0-5.12,3.413-8.533,8.533-8.533H127
			c5.12,0,8.533,3.413,8.533,8.533v494.933C135.533,507.587,132.12,511,127,511z M50.2,493.933h68.267V16.067H50.2V493.933z"/>
	</g>
	<g>
		<path id="SVGCleanerId_7_1_" d="M383,511h-85.333c-5.12,0-8.533-3.413-8.533-8.533V7.533c0-5.12,3.413-8.533,8.533-8.533H383
			c5.12,0,8.533,3.413,8.533,8.533v494.933C391.533,507.587,388.12,511,383,511z M306.2,493.933h68.267V16.067H306.2V493.933z"/>
	</g>
</g>
<g>
</g>
<g>
</g>
<g>
</g>
<g>
</g>
<g>
</g>
<g>
</g>
<g>
</g>
<g>
</g>
<g>
</g>
<g>
</g>
<g>
</g>
<g>
</g>
<g>
</g>
<g>
</g>
<g>
</g>
</svg>
